<svg width="48" height="23" viewBox="0 0 48 23" fill="none" xmlns="http://www.w3.org/2000/svg">
<path d="M46 20C46 20.542 45.542 21 45 21H28C27.458 21 27 20.542 27 20V3C27 2.458 27.458 2 28 2H44.908L46.493 0.415C46.041 0.146542 45.5257 0.00329969 45 0H28C26.35 0 25 1.35 25 3V20C25 21.65 26.35 23 28 23H45C46.65 23 48 21.65 48 20V10.171L46 12.171V20Z" fill="#4D4D4D"/>
<path fill-rule="evenodd" clip-rule="evenodd" d="M3 0H20C21.65 0 23 1.35 23 3V20C23 21.65 21.65 23 20 23H3C1.35 23 0 21.65 0 20V3C0 1.35 1.35 0 3 0ZM21 3C21 2.458 20.542 2 20 2H3C2.458 2 2 2.458 2 3V20C2 20.542 2.458 21 3 21H20C20.542 21 21 20.542 21 20V3Z" fill="#4D4D4D"/>
</svg>
